<svg width="24" height="24" viewBox="0 0 24 24" fill="none" xmlns="http://www.w3.org/2000/svg">
<g clip-path="url(#clip0_770_170)">
<path d="M12.0001 0C5.37347 0 0 5.37253 0 12.0001C0 17.302 3.43838 21.8002 8.20641 23.387C8.80613 23.4981 9.02634 23.1266 9.02634 22.8097C9.02634 22.5235 9.01509 21.5783 9.01003 20.5756C5.67159 21.3014 4.96716 19.1597 4.96716 19.1597C4.42125 17.7727 3.63469 17.4037 3.63469 17.4037C2.54597 16.659 3.71681 16.6744 3.71681 16.6744C4.92178 16.7589 5.55628 17.9109 5.55628 17.9109C6.62662 19.7454 8.36362 19.2151 9.04837 18.9084C9.15609 18.1329 9.46706 17.6034 9.81028 17.3038C7.14487 17.0004 4.34297 15.9714 4.34297 11.3734C4.34297 10.0632 4.81172 8.99269 5.57934 8.15231C5.45475 7.85006 5.04403 6.62962 5.69559 4.97662C5.69559 4.97662 6.70331 4.65413 8.99653 6.20672C9.95372 5.94084 10.9803 5.80753 12.0001 5.80294C13.0199 5.80753 14.0473 5.94075 15.0063 6.20672C17.2967 4.65422 18.303 4.97672 18.303 4.97672C18.9562 6.62953 18.5452 7.85016 18.4207 8.15231C19.1901 8.99269 19.6556 10.0632 19.6556 11.3734C19.6556 15.9824 16.8484 16.9973 14.1762 17.2943C14.6066 17.6667 14.9902 18.397 14.9902 19.5166C14.9902 21.1222 14.9763 22.4144 14.9763 22.8097C14.9763 23.1291 15.1923 23.5032 15.8005 23.3853C20.5659 21.7969 24 17.3003 24 12.0002C24 5.37253 18.6273 0 12.0001 0ZM4.49447 17.0944C4.46803 17.154 4.37419 17.1719 4.28878 17.1309C4.20169 17.0918 4.15284 17.0106 4.18097 16.9507C4.20684 16.8893 4.30087 16.8722 4.38769 16.9133C4.47487 16.9525 4.52456 17.0346 4.49447 17.0944ZM5.08472 17.6211C5.02753 17.6741 4.91559 17.6495 4.83966 17.5657C4.76119 17.482 4.74647 17.3701 4.8045 17.3163C4.86356 17.2632 4.97203 17.2881 5.05069 17.3717C5.12925 17.4563 5.14444 17.5674 5.08472 17.6211ZM5.48972 18.2949C5.41612 18.346 5.29594 18.2981 5.22159 18.1914C5.14809 18.0848 5.14809 17.9568 5.22319 17.9055C5.29772 17.8542 5.41613 17.9003 5.49141 18.0063C5.56472 18.1148 5.56472 18.2427 5.48962 18.295L5.48972 18.2949ZM6.17447 19.0754C6.10875 19.148 5.96859 19.1285 5.86603 19.0295C5.76112 18.9327 5.73197 18.7955 5.79797 18.7229C5.86453 18.6502 6.00544 18.6706 6.10875 18.7688C6.21281 18.8654 6.24469 19.0037 6.17447 19.0754ZM7.05966 19.3388C7.03059 19.4329 6.89559 19.4756 6.75975 19.4357C6.624 19.3945 6.53522 19.2845 6.56259 19.1895C6.59081 19.0948 6.72638 19.0504 6.86325 19.0931C6.99881 19.134 7.08788 19.2432 7.05966 19.3388ZM8.06691 19.4507C8.07028 19.5496 7.95506 19.6316 7.81238 19.6335C7.66894 19.6367 7.55278 19.5566 7.55119 19.4591C7.55119 19.3593 7.66387 19.278 7.80741 19.2756C7.95009 19.2728 8.06691 19.3522 8.06691 19.4507ZM9.05644 19.4127C9.0735 19.5093 8.97441 19.6085 8.83266 19.6349C8.69344 19.6603 8.56444 19.6007 8.54672 19.505C8.52947 19.406 8.63044 19.3068 8.76947 19.2812C8.91141 19.2565 9.03834 19.3146 9.05644 19.4127Z" fill="white"/>
</g>
<defs>
<clipPath id="clip0_770_170">
<rect width="24" height="23.4375" fill="white"/>
</clipPath>
</defs>
</svg>
