<svg width="54" height="54" viewBox="0 0 54 54" fill="none" xmlns="http://www.w3.org/2000/svg">
<path d="M29.2218 7.00513C28.1771 7 27.0678 7 25.8885 7C15.9366 7 10.9607 7 7.86899 10.0916C4.77734 13.1833 4.77734 18.1592 4.77734 28.1111C4.77734 38.0629 4.77734 43.0389 7.86899 46.1307C10.9607 49.2222 15.9366 49.2222 25.8885 49.2222C35.8402 49.2222 40.8162 49.2222 43.908 46.1307C46.8822 43.1562 46.9951 38.4378 46.9993 29.2222" stroke="white" stroke-width="3" stroke-linecap="round"/>
<path d="M4.77734 31.7453C6.15294 31.5456 7.54365 31.4469 8.9367 31.4504C14.8299 31.3258 20.5788 33.162 25.1576 36.6316C29.404 39.8491 32.3878 44.2776 33.6662 49.2222" stroke="white" stroke-width="3" stroke-linejoin="round"/>
<path d="M47 37.8804C44.388 36.5576 41.6862 35.8862 38.9693 35.8891C34.8544 35.8729 30.7811 37.3851 27 40.3333" stroke="white" stroke-width="3" stroke-linejoin="round"/>
<path d="M38.1104 10.3334C39.2026 9.20958 42.1099 4.7778 43.6659 4.7778M43.6659 4.7778C45.2219 4.7778 48.1292 9.20958 49.2215 10.3334M43.6659 4.7778V22.5556" stroke="white" stroke-width="3" stroke-linecap="round" stroke-linejoin="round"/>
</svg>
