<svg width="64" height="50" viewBox="0 0 64 50" fill="none" xmlns="http://www.w3.org/2000/svg">
<path d="M13.4721 1.57573C7.47404 3.86819 3.07755 9.2696 0.722281 17.3403C0.0628071 19.5386 0 25.0342 0 25.0342C0 25.0342 0.0628071 30.4042 0.847896 32.728C3.20316 39.7624 8.54176 44.8812 15.3563 46.577C16.1728 46.7654 16.1728 46.7654 14.8853 44.787C11.5879 39.6996 11.5879 34.3296 14.8539 29.3051C16.3926 26.9812 20.0041 23.4012 23.5527 20.7005C24.9658 19.6642 26.536 18.1254 27.0698 17.3403C30.4614 12.2215 28.2946 4.8103 22.5791 1.85836C20.2867 0.696433 16.1414 0.539416 13.4721 1.57573Z" fill="#FF9000"/>
<path d="M43.1477 1.13609C38.971 2.42363 35.705 6.44329 35.3596 10.777C35.0456 14.9222 36.4587 17.7172 40.447 20.7005C51.5324 29.0852 54.2331 36.5593 49.1457 44.6928C47.8582 46.734 47.8582 46.7654 48.6433 46.577C55.5207 44.8498 60.7965 39.7938 63.1831 32.6338C63.9368 30.4356 63.9996 25.0342 63.9996 25.0342C63.9996 25.0342 63.56 16.8065 61.1733 11.9703C57.7817 5.03013 52.0663 0.822052 46.1624 0.884859C44.9377 0.884859 43.5873 1.01047 43.1477 1.13609Z" fill="#FF9000"/>
<path d="M29.7713 19.413C28.3582 19.8212 27.3219 21.0773 27.3219 22.3963C27.3219 23.3384 27.5731 23.7466 28.7978 24.9086C30.8076 26.7614 30.8076 27.6407 28.7978 29.8075C27.9499 30.6868 26.2227 32.2256 24.9352 33.1991C21.0725 36.151 19.8164 38.1609 19.8164 41.4268C19.8164 45.1639 21.7006 47.6133 25.7831 49.2777C27.3847 49.9058 28.1069 50 32.001 50C35.8322 49.9686 36.6173 49.8744 38.2189 49.2463C42.3013 47.6447 44.1856 45.1639 44.1856 41.4268C44.1856 38.1295 43.1178 36.4337 39.0354 33.1677C37.5594 32.0058 35.7694 30.4042 35.0471 29.6191C33.2571 27.6721 33.2885 26.7928 35.2041 24.94C36.3975 23.7466 36.6801 23.307 36.6801 22.3963C36.6801 19.9154 33.2257 18.408 29.7713 19.413ZM34.3248 33.8586C37.2454 34.8949 35.6438 37.2816 32.001 37.2816C29.4573 37.2816 27.7929 36.2138 28.2954 34.9263C28.735 33.7016 32.158 33.1049 34.3248 33.8586Z" fill="#FF9000"/>
</svg>
