<svg width="252" height="50" viewBox="0 0 252 50" fill="none" xmlns="http://www.w3.org/2000/svg">
<path d="M13.4721 1.57573C7.47404 3.86819 3.07755 9.2696 0.722281 17.3403C0.0628071 19.5386 0 25.0342 0 25.0342C0 25.0342 0.0628071 30.4042 0.847896 32.728C3.20316 39.7624 8.54176 44.8812 15.3563 46.577C16.1728 46.7654 16.1728 46.7654 14.8853 44.787C11.5879 39.6996 11.5879 34.3296 14.8539 29.3051C16.3926 26.9812 20.0041 23.4012 23.5527 20.7005C24.9658 19.6642 26.536 18.1254 27.0698 17.3403C30.4614 12.2215 28.2946 4.8103 22.5791 1.85836C20.2867 0.696433 16.1414 0.539416 13.4721 1.57573Z" fill="#FF9000"/>
<path d="M43.1477 1.13609C38.971 2.42363 35.705 6.44329 35.3596 10.777C35.0456 14.9222 36.4587 17.7172 40.447 20.7005C51.5324 29.0852 54.2331 36.5593 49.1457 44.6928C47.8582 46.734 47.8582 46.7654 48.6433 46.577C55.5207 44.8498 60.7965 39.7938 63.1831 32.6338C63.9368 30.4356 63.9996 25.0342 63.9996 25.0342C63.9996 25.0342 63.56 16.8065 61.1733 11.9703C57.7817 5.03013 52.0663 0.822052 46.1624 0.884859C44.9377 0.884859 43.5873 1.01047 43.1477 1.13609Z" fill="#FF9000"/>
<path d="M29.7713 19.413C28.3582 19.8212 27.3219 21.0773 27.3219 22.3963C27.3219 23.3384 27.5731 23.7466 28.7978 24.9086C30.8076 26.7614 30.8076 27.6407 28.7978 29.8075C27.9499 30.6868 26.2227 32.2256 24.9352 33.1991C21.0725 36.151 19.8164 38.1609 19.8164 41.4268C19.8164 45.1639 21.7006 47.6133 25.7831 49.2777C27.3847 49.9058 28.1069 50 32.001 50C35.8322 49.9686 36.6173 49.8744 38.2189 49.2463C42.3013 47.6447 44.1856 45.1639 44.1856 41.4268C44.1856 38.1295 43.1178 36.4337 39.0354 33.1677C37.5594 32.0058 35.7694 30.4042 35.0471 29.6191C33.2571 27.6721 33.2885 26.7928 35.2041 24.94C36.3975 23.7466 36.6801 23.307 36.6801 22.3963C36.6801 19.9154 33.2257 18.408 29.7713 19.413ZM34.3248 33.8586C37.2454 34.8949 35.6438 37.2816 32.001 37.2816C29.4573 37.2816 27.7929 36.2138 28.2954 34.9263C28.735 33.7016 32.158 33.1049 34.3248 33.8586Z" fill="#FF9000"/>
<path d="M84.8 20.7661C85.536 18.5901 86.992 17.5021 89.168 17.5021C90.608 17.5021 91.712 17.9341 92.48 18.7981C93.28 19.6301 93.68 20.8461 93.68 22.4461V32.2861C93.68 35.1661 94.992 36.8301 97.616 37.2781V26.0941C97.616 24.7501 97.44 23.6461 97.088 22.7821C96.736 21.8861 96.4 21.3261 96.08 21.1021L95.552 20.7661C96.288 18.5901 97.76 17.5021 99.968 17.5021C101.408 17.5021 102.512 17.9341 103.28 18.7981C104.08 19.6301 104.48 20.8461 104.48 22.4461V31.2301C104.48 33.0861 103.776 34.9261 102.368 36.7501C100.96 38.5741 99.616 39.7421 98.336 40.2541C97.056 42.0461 95.44 42.9421 93.488 42.9421C90.64 42.9421 88.704 41.8861 87.68 39.7741C87.136 40.6381 86.4 41.3901 85.472 42.0301C84.544 42.6381 83.616 42.9421 82.688 42.9421C80.512 42.9421 78.768 42.2221 77.456 40.7821C76.176 39.3421 75.536 37.5661 75.536 35.4541V27.3421C75.536 24.6861 75.28 22.4621 74.768 20.6701L74.48 19.8061C74.608 19.6461 74.784 19.4381 75.008 19.1821C75.264 18.9261 75.792 18.5901 76.592 18.1741C77.392 17.7261 78.224 17.5021 79.088 17.5021C81.616 17.5021 82.88 19.5021 82.88 23.5021V32.2861C82.88 35.2621 84.224 36.9261 86.912 37.2781C86.848 36.9581 86.816 36.3981 86.816 35.5981V26.0941C86.816 24.7501 86.64 23.6461 86.288 22.7821C85.968 21.8861 85.648 21.3261 85.328 21.1021L84.8 20.7661ZM126.032 29.0221C126.032 33.5341 125.04 36.9901 123.056 39.3901C121.072 41.7581 118.592 42.9421 115.616 42.9421C113.536 42.9421 111.664 42.2061 110 40.7341C109.104 39.9661 108.384 38.8141 107.84 37.2781C107.296 35.7101 107.024 33.8541 107.024 31.7101C107.024 28.4781 107.632 26.0141 108.848 24.3181C110.064 22.5901 111.376 21.5501 112.784 21.1981C113.296 19.6301 114.368 18.5261 116 17.8861C116.736 17.6301 117.552 17.5021 118.448 17.5021C123.504 17.5021 126.032 21.3421 126.032 29.0221ZM113.888 29.8861C113.888 34.7501 114.752 37.1821 116.48 37.1821C118.016 37.1821 118.784 34.8941 118.784 30.3181C118.784 28.0781 118.416 26.5101 117.68 25.6141C116.976 24.6861 115.984 24.2221 114.704 24.2221C114.16 25.2461 113.888 27.1341 113.888 29.8861ZM132.535 42.9421C129.911 42.9421 128.599 41.0541 128.599 37.2781V22.8781L127.543 19.5661C127.671 19.4061 127.847 19.1981 128.071 18.9421C128.327 18.6861 128.855 18.3501 129.655 17.9341C130.455 17.5181 131.287 17.3101 132.151 17.3101C134.167 17.3101 135.383 18.5901 135.799 21.1501C137.367 18.7181 139.223 17.5021 141.367 17.5021C143.543 17.5021 144.631 18.5261 144.631 20.5741C144.631 22.3661 144.247 23.8381 143.479 24.9901C142.775 26.0141 142.039 26.8301 141.271 27.4381C139.767 26.0941 137.991 25.2301 135.943 24.8461V37.5661L136.999 40.0141C136.871 40.2381 136.695 40.5101 136.471 40.8301C136.247 41.1501 135.751 41.5821 134.983 42.1261C134.215 42.6701 133.399 42.9421 132.535 42.9421ZM146.364 37.2781V19.0381C146.364 16.3821 146.108 14.1741 145.596 12.4141L145.308 11.5021C145.436 11.3421 145.612 11.1341 145.836 10.8781C146.092 10.6221 146.62 10.2861 147.42 9.87011C148.22 9.42211 149.052 9.19811 149.916 9.19811C152.444 9.19811 153.708 11.1981 153.708 15.1981V37.5661L154.764 40.0141C154.636 40.2381 154.46 40.5101 154.236 40.8301C154.012 41.1501 153.516 41.5821 152.748 42.1261C151.98 42.6701 151.164 42.9421 150.3 42.9421C147.676 42.9421 146.364 41.0541 146.364 37.2781ZM175.243 15.1981V37.5661L176.251 40.0141C176.123 40.2381 175.947 40.5101 175.723 40.8301C175.499 41.1501 175.003 41.5821 174.235 42.1261C173.499 42.6701 172.699 42.9421 171.835 42.9421C170.043 42.9421 168.843 42.0461 168.234 40.2541C167.211 42.0461 165.707 42.9421 163.723 42.9421C161.739 42.9421 160.139 42.3021 158.923 41.0221C157.707 39.7101 157.099 38.1101 157.099 36.2221V28.8301C157.099 25.6621 158.011 23.1501 159.835 21.2941C161.659 19.4061 163.899 18.4621 166.555 18.4621C166.971 18.4621 167.419 18.5101 167.898 18.6061C167.835 16.5901 167.547 14.5421 167.035 12.4621L166.795 11.5021C166.923 11.3421 167.099 11.1341 167.323 10.8781C167.579 10.6221 168.107 10.2861 168.907 9.87011C169.707 9.42211 170.555 9.19811 171.451 9.19811C173.979 9.19811 175.243 11.1981 175.243 15.1981ZM163.963 33.5341C163.963 34.7821 164.235 35.7101 164.779 36.3181C165.355 36.8941 166.395 37.2301 167.898 37.3261V26.8621C167.803 25.9981 167.435 25.3581 166.795 24.9421C166.187 24.4941 165.243 24.1421 163.963 23.8861V33.5341ZM185.958 48.1741C184.934 48.8781 183.734 49.2301 182.358 49.2301C180.982 49.2301 180.006 48.9581 179.43 48.4141C178.886 47.8701 178.614 46.9901 178.614 45.7741V22.8781L177.558 19.5661C177.686 19.4061 177.862 19.1981 178.086 18.9421C178.342 18.6861 178.87 18.3501 179.67 17.9341C180.47 17.5181 181.302 17.3101 182.166 17.3101C183.83 17.3101 184.95 18.2221 185.526 20.0461C187.222 18.3501 189.11 17.5021 191.19 17.5021C193.302 17.5021 194.918 18.1581 196.038 19.4701C197.19 20.7501 197.766 22.4621 197.766 24.6061V30.8461C197.766 33.7901 196.614 36.5421 194.31 39.1021C192.006 41.6621 189.446 42.9421 186.63 42.9421H185.958V48.1741ZM185.958 36.7981C186.438 37.1821 187.062 37.3741 187.83 37.3741C188.598 37.3741 189.222 37.1341 189.702 36.6541C190.182 36.1741 190.422 35.5021 190.422 34.6381V27.6781C190.422 25.9821 190.006 24.8301 189.174 24.2221C188.662 23.9021 188.134 23.7421 187.59 23.7421C187.046 23.7421 186.502 23.8221 185.958 23.9821V36.7981ZM216.686 36.0781C217.038 36.4301 217.214 36.8941 217.214 37.4701C217.214 38.0461 217.054 38.6381 216.734 39.2461C216.446 39.8221 215.998 40.3981 215.39 40.9741C214.814 41.5181 213.982 41.9821 212.894 42.3661C211.806 42.7501 210.606 42.9421 209.294 42.9421C208.014 42.9421 206.862 42.7661 205.838 42.4141C204.814 42.0301 203.838 41.4381 202.91 40.6381C200.894 38.8461 199.886 35.9181 199.886 31.8541C199.886 27.7901 200.574 24.7821 201.95 22.8301C203.326 20.8461 204.894 19.7581 206.654 19.5661C207.934 18.1901 209.47 17.5021 211.262 17.5021C213.086 17.5021 214.558 18.1581 215.678 19.4701C216.83 20.7821 217.406 22.5741 217.406 24.8461C217.406 27.5021 216.43 29.5981 214.478 31.1341C212.878 32.4141 210.958 33.3901 208.718 34.0621C209.838 35.5341 211.694 36.2701 214.286 36.2701C215.022 36.2701 215.822 36.2061 216.686 36.0781ZM210.734 27.1981C210.734 25.2461 209.534 24.1741 207.134 23.9821V28.3021C207.134 29.7421 207.262 30.8941 207.518 31.7581C209.662 30.5741 210.734 29.0541 210.734 27.1981ZM232.348 18.5581C232.668 19.3581 232.828 20.2061 232.828 21.1021C232.828 21.9661 232.796 22.6061 232.732 23.0221C232.7 23.4061 232.508 23.8381 232.156 24.3181C231.804 24.7661 231.34 24.9901 230.764 24.9901C230.188 24.9901 229.356 24.9581 228.268 24.8941V31.9501C228.268 35.0861 229.628 37.1661 232.348 38.1901C232.348 39.3741 231.932 40.4621 231.1 41.4541C230.3 42.4461 229.196 42.9421 227.788 42.9421C225.74 42.9421 224.092 42.1901 222.844 40.6861C221.596 39.1821 220.972 37.2301 220.972 34.8301V24.3661C220.14 24.1421 219.388 23.8701 218.716 23.5501L218.668 22.9741C218.668 20.7981 219.42 19.3421 220.924 18.6061C220.796 16.3981 220.524 14.6541 220.108 13.3741L219.916 12.7021C220.044 12.5421 220.22 12.3341 220.444 12.0781C220.7 11.8221 221.228 11.4861 222.028 11.0701C222.828 10.6541 223.66 10.4461 224.523 10.4461C227.02 10.4461 228.268 12.4461 228.268 16.4461V18.4141C229.292 18.5101 230.652 18.5581 232.348 18.5581ZM240.769 23.6461C240.769 24.9261 241.921 26.0781 244.225 27.1021C245.153 27.5501 246.081 28.0461 247.009 28.5901C247.969 29.1021 248.785 29.8701 249.457 30.8941C250.129 31.8861 250.465 33.1021 250.465 34.5421C250.465 37.0701 249.601 39.1021 247.873 40.6381C246.177 42.1741 244.065 42.9421 241.537 42.9421C239.041 42.9421 237.105 42.3981 235.729 41.3101C234.353 40.1901 233.665 39.0221 233.665 37.8061C233.665 36.9741 233.857 36.2381 234.241 35.5981C234.657 34.9261 235.073 34.4781 235.489 34.2541L236.065 33.9181C236.257 34.2061 236.529 34.5741 236.881 35.0221C237.265 35.4381 238.001 35.9981 239.089 36.7021C240.177 37.4061 241.105 37.7581 241.873 37.7581C242.673 37.7581 243.217 37.6461 243.505 37.4221C243.825 37.1661 243.985 36.8941 243.985 36.6061C243.985 36.0621 243.473 35.4861 242.449 34.8781C241.457 34.2701 240.369 33.7101 239.185 33.1981C238.001 32.6541 236.897 31.8701 235.873 30.8461C234.881 29.8221 234.385 28.6541 234.385 27.3421C234.385 26.0301 234.769 24.7821 235.537 23.5981C236.337 22.4141 237.265 21.5821 238.321 21.1021C238.481 20.0781 239.121 19.1821 240.241 18.4141C241.393 17.6461 242.833 17.2621 244.561 17.2621C246.289 17.2621 247.681 17.6621 248.737 18.4621C249.793 19.2621 250.321 20.3341 250.321 21.6781C250.321 23.0221 250.129 23.9981 249.745 24.6061C249.361 25.2141 248.753 25.6941 247.921 26.0461C246.513 24.4781 244.129 23.5341 240.769 23.2141V23.6461Z" fill="#FF9000"/>
</svg>
